<svg xmlns="http://www.w3.org/2000/svg" viewBox="0 0 512 512" role="img" aria-label="Croakle pixel frog logo">
  <rect width="512" height="512" fill="#ffffff"/>
  <g shape-rendering="crispEdges">
    <!-- eyes outline -->
    <rect x="144" y="80" width="80" height="24" fill="#000000"/>
    <rect x="120" y="104" width="24" height="48" fill="#000000"/>
    <rect x="224" y="104" width="24" height="48" fill="#000000"/>
    <rect x="96" y="152" width="24" height="72" fill="#000000"/>
    <rect x="248" y="152" width="24" height="72" fill="#000000"/>
    <rect x="120" y="224" width="48" height="24" fill="#000000"/>

    <rect x="288" y="80" width="80" height="24" fill="#000000"/>
    <rect x="264" y="104" width="24" height="48" fill="#000000"/>
    <rect x="368" y="104" width="24" height="48" fill="#000000"/>
    <rect x="240" y="152" width="24" height="72" fill="#000000"/>
    <rect x="392" y="152" width="24" height="72" fill="#000000"/>
    <rect x="344" y="224" width="48" height="24" fill="#000000"/>

    <!-- eyes white -->
    <rect x="144" y="104" width="80" height="120" fill="#ffffff"/>
    <rect x="120" y="152" width="24" height="72" fill="#ffffff"/>
    <rect x="288" y="104" width="80" height="120" fill="#ffffff"/>
    <rect x="264" y="152" width="24" height="72" fill="#ffffff"/>

    <!-- pupils -->
    <rect x="168" y="152" width="48" height="24" fill="#000000"/>
    <rect x="192" y="176" width="24" height="48" fill="#000000"/>
    <rect x="312" y="152" width="48" height="24" fill="#000000"/>
    <rect x="312" y="176" width="24" height="48" fill="#000000"/>

    <!-- body outline -->
    <rect x="224" y="128" width="64" height="24" fill="#000000"/>
    <rect x="120" y="248" width="24" height="48" fill="#000000"/>
    <rect x="392" y="248" width="24" height="48" fill="#000000"/>
    <rect x="96" y="272" width="24" height="48" fill="#000000"/>
    <rect x="416" y="272" width="24" height="48" fill="#000000"/>
    <rect x="120" y="320" width="48" height="24" fill="#000000"/>
    <rect x="344" y="320" width="48" height="24" fill="#000000"/>
    <rect x="168" y="344" width="24" height="48" fill="#000000"/>
    <rect x="320" y="344" width="24" height="48" fill="#000000"/>
    <rect x="120" y="368" width="24" height="48" fill="#000000"/>
    <rect x="96" y="392" width="24" height="48" fill="#000000"/>
    <rect x="144" y="416" width="48" height="24" fill="#000000"/>
    <rect x="120" y="440" width="96" height="24" fill="#000000"/>
    <rect x="392" y="368" width="24" height="48" fill="#000000"/>
    <rect x="416" y="392" width="24" height="48" fill="#000000"/>
    <rect x="344" y="416" width="48" height="24" fill="#000000"/>
    <rect x="320" y="440" width="96" height="24" fill="#000000"/>
    <rect x="216" y="440" width="24" height="24" fill="#000000"/>
    <rect x="272" y="440" width="24" height="24" fill="#000000"/>

    <!-- body green -->
    <rect x="224" y="152" width="64" height="48" fill="#62dd5f"/>
    <rect x="200" y="200" width="112" height="48" fill="#62dd5f"/>
    <rect x="144" y="248" width="248" height="48" fill="#62dd5f"/>
    <rect x="120" y="296" width="296" height="24" fill="#62dd5f"/>
    <rect x="144" y="320" width="200" height="24" fill="#62dd5f"/>
    <rect x="192" y="344" width="128" height="96" fill="#62dd5f"/>
    <rect x="144" y="368" width="48" height="48" fill="#62dd5f"/>
    <rect x="120" y="392" width="24" height="48" fill="#62dd5f"/>
    <rect x="144" y="440" width="48" height="24" fill="#62dd5f"/>
    <rect x="344" y="368" width="48" height="48" fill="#62dd5f"/>
    <rect x="392" y="392" width="24" height="48" fill="#62dd5f"/>
    <rect x="344" y="440" width="48" height="24" fill="#62dd5f"/>

    <!-- cheeks shadow -->
    <rect x="120" y="296" width="48" height="24" fill="#46c944" opacity="0.7"/>
    <rect x="368" y="296" width="48" height="24" fill="#46c944" opacity="0.7"/>
    <rect x="120" y="416" width="24" height="24" fill="#46c944" opacity="0.7"/>
    <rect x="392" y="416" width="24" height="24" fill="#46c944" opacity="0.7"/>

    <!-- smile -->
    <rect x="168" y="272" width="24" height="24" fill="#000000"/>
    <rect x="192" y="296" width="128" height="24" fill="#000000"/>
    <rect x="320" y="272" width="24" height="24" fill="#000000"/>

    <!-- belly -->
    <rect x="240" y="368" width="48" height="24" fill="#ffffff"/>
    <rect x="216" y="392" width="96" height="48" fill="#ffffff"/>
    <rect x="240" y="440" width="48" height="24" fill="#ffffff"/>
  </g>
</svg>
